{
  "accessors": [
    {
      "bufferView": 0,
      "componentType": 5126,
      "count": 204,
      "type": "VEC3",
      "max": [
        2.72567177,
        16.84,
        -21.0818844
      ],
      "min": [
        -22.7970448,
        -3.16,
        -27.92004
      ]
    },
    {
      "bufferView": 1,
      "componentType": 5126,
      "count": 204,
      "type": "VEC3",
      "max": [
        1.0,
        1.0,
        1.0
      ],
      "min": [
        -1.0,
        -1.0,
        -1.0
      ]
    },
    {
      "bufferView": 2,
      "componentType": 5125,
      "count": 384,
      "type": "SCALAR"
    },
    {
      "bufferView": 3,
      "componentType": 5126,
      "count": 144,
      "type": "VEC3",
      "max": [
        50.9086876,
        21.36,
        15.1850138
      ],
      "min": [
        23.4696617,
        -3.16,
        -17.7473946
      ]
    },
    {
      "bufferView": 4,
      "componentType": 5126,
      "count": 144,
      "type": "VEC3",
      "max": [
        1.0,
        1.0,
        1.0
      ],
      "min": [
        -1.0,
        -1.0,
        -1.0
      ]
    },
    {
      "bufferView": 5,
      "componentType": 5125,
      "count": 264,
      "type": "SCALAR"
    },
    {
      "bufferView": 6,
      "componentType": 5126,
      "count": 72,
      "type": "VEC3",
      "max": [
        23.5449333,
        -1.1500001,
        -13.811244
      ],
      "min": [
        -0.324732,
        -3.16,
        -27.7574253
      ]
    },
    {
      "bufferView": 7,
      "componentType": 5126,
      "count": 72,
      "type": "VEC3",
      "max": [
        1.0,
        1.0,
        1.0
      ],
      "min": [
        -1.0,
        -1.0,
        -1.0
      ]
    },
    {
      "bufferView": 8,
      "componentType": 5125,
      "count": 126,
      "type": "SCALAR"
    },
    {
      "bufferView": 9,
      "componentType": 5126,
      "count": 24,
      "type": "VEC3",
      "max": [
        7.418503,
        -1.25,
        -21.1568832
      ],
      "min": [
        -0.581497669,
        -3.16,
        -23.7813148
      ]
    },
    {
      "bufferView": 10,
      "componentType": 5126,
      "count": 24,
      "type": "VEC3",
      "max": [
        1.0,
        1.0,
        1.0
      ],
      "min": [
        -1.0,
        -1.0,
        -1.0
      ]
    },
    {
      "bufferView": 11,
      "componentType": 5125,
      "count": 36,
      "type": "SCALAR"
    }
  ],
  "asset": {
    "generator": "D-studio Ifc2Gltf",
    "version": "2.0"
  },
  "buffers": [
    {
      "uri": "data:application/octet-stream;base64,",
      "byteLength": 6432
    },
    {
      "uri": "data:application/octet-stream;base64,",
      "byteLength": 4512
    },
    {
      "uri": "data:application/octet-stream;base64,",
      "byteLength": 2232
    },
    {
      "uri": "data:application/octet-stream;base64,",
      "byteLength": 720
    }
  ],
  "bufferViews": [
    {
      "buffer": 0,
      "byteLength": 2448,
      "byteStride": 12,
      "target": 34962
    },
    {
      "buffer": 0,
      "byteOffset": 2448,
      "byteLength": 2448,
      "byteStride": 12,
      "target": 34962
    },
    {
      "buffer": 0,
      "byteOffset": 4896,
      "byteLength": 1536,
      "target": 34963
    },
    {
      "buffer": 1,
      "byteLength": 1728,
      "byteStride": 12,
      "target": 34962
    },
    {
      "buffer": 1,
      "byteOffset": 1728,
      "byteLength": 1728,
      "byteStride": 12,
      "target": 34962
    },
    {
      "buffer": 1,
      "byteOffset": 3456,
      "byteLength": 1056,
      "target": 34963
    },
    {
      "buffer": 2,
      "byteLength": 864,
      "byteStride": 12,
      "target": 34962
    },
    {
      "buffer": 2,
      "byteOffset": 864,
      "byteLength": 864,
      "byteStride": 12,
      "target": 34962
    },
    {
      "buffer": 2,
      "byteOffset": 1728,
      "byteLength": 504,
      "target": 34963
    },
    {
      "buffer": 3,
      "byteLength": 288,
      "byteStride": 12,
      "target": 34962
    },
    {
      "buffer": 3,
      "byteOffset": 288,
      "byteLength": 288,
      "byteStride": 12,
      "target": 34962
    },
    {
      "buffer": 3,
      "byteOffset": 576,
      "byteLength": 144,
      "target": 34963
    }
  ],
  "materials": [
    {
      "name": "material0",
      "pbrMetallicRoughness": {
        "metallicFactor": 0.5,
        "roughnessFactor": 0.5
      }
    },
    {
      "name": "material1",
      "pbrMetallicRoughness": {
        "metallicFactor": 0.5,
        "roughnessFactor": 0.5
      }
    },
    {
      "name": "material2",
      "pbrMetallicRoughness": {
        "baseColorFactor": [
          0.478431374,
          0.478431374,
          0.478431374,
          1.0
        ],
        "roughnessFactor": 0.0
      }
    },
    {
      "name": "material3",
      "pbrMetallicRoughness": {
        "baseColorFactor": [
          0.478431374,
          0.478431374,
          0.478431374,
          1.0
        ],
        "roughnessFactor": 0.0
      }
    }
  ],
  "meshes": [
    {
      "primitives": [
        {
          "attributes": {
            "POSITION": 0,
            "NORMAL": 1
          },
          "indices": 2,
          "material": 0
        }
      ]
    },
    {
      "primitives": [
        {
          "attributes": {
            "POSITION": 3,
            "NORMAL": 4
          },
          "indices": 5,
          "material": 1
        }
      ]
    },
    {
      "primitives": [
        {
          "attributes": {
            "POSITION": 6,
            "NORMAL": 7
          },
          "indices": 8,
          "material": 2
        }
      ]
    },
    {
      "primitives": [
        {
          "attributes": {
            "POSITION": 9,
            "NORMAL": 10
          },
          "indices": 11,
          "material": 3
        }
      ]
    }
  ],
  "nodes": [
    {
      "mesh": 0,
      "name": "2e5IrlJ9L7q9qP31ZMQdZW"
    },
    {
      "mesh": 1,
      "name": "2e5IrlJ9L7q9qP31ZMQdZd"
    },
    {
      "mesh": 2,
      "name": "2e5IrlJ9L7q9qP31ZMQdZb"
    },
    {
      "mesh": 3,
      "name": "2e5IrlJ9L7q9qP31ZMQdZa"
    }
  ],
  "scene": 0,
  "scenes": [
    {
      "nodes": [
        0,
        1,
        2,
        3
      ]
    }
  ]
}